<?xml version="1.0" encoding="UTF-8"?>
<svg id="Capa_1" data-name="Capa 1" xmlns="http://www.w3.org/2000/svg" viewBox="0 0 235.56 222.22">
  <defs>
    <style>
      .cls-1 {
        fill: #fff;
        stroke-width: 0px;
      }
    </style>
  </defs>
  <path class="cls-1" d="M100,71.87c0-2.99-2.45-5.97-5.31-5.97h-27.26l-.03-.06h-12.53l31.44,50.83v39.72h12.06v-40.9l-21.16-37.76h17.83c2.86,0,4.95-2.86,4.95-5.85"/>
  <path class="cls-1" d="M175.92,116.38c-2.63,0-4.77,1.92-4.77,4.29l-.02,21.66c-5.87,3.94-12.91,6.24-20.51,6.24-20.37,0-36.88-16.51-36.88-36.88s16.51-36.88,36.88-36.88c8.54,0,16.4,2.91,22.64,7.78,1.79.38,3.79-.25,5.12-1.83,1.87-2.22,1.71-5.44-.36-7.19l-2-1.69-.38-.32c-.4-.34-.85-.57-1.32-.76-7.03-4.21-15.26-6.63-24.06-6.63-25.92,0-46.92,21.01-46.92,46.92s21.01,46.93,46.92,46.93c10.02,0,19.31-3.14,26.93-8.49,0,0,.89-.6,1.22-.83,1.34-.76,2.24-2.09,2.24-3.63l.03-24.41c0-2.37-2.13-4.3-4.76-4.3"/>
</svg>